
<svg width="160" height="40" viewBox="0 0 160 40" fill="none" xmlns="http://www.w3.org/2000/svg">
  <path d="M25.6 8H14.4C10.8654 8 8 10.8654 8 14.4V25.6C8 29.1346 10.8654 32 14.4 32H25.6C29.1346 32 32 29.1346 32 25.6V14.4C32 10.8654 29.1346 8 25.6 8Z" fill="#B08401"/>
  <path d="M54.624 12.128H48.32V28H44.384V12.128H38.08V8.8H54.624V12.128ZM57.1619 28V8.8H61.0979V16.256H71.1699V8.8H75.1059V28H71.1699V19.584H61.0979V28H57.1619ZM90.3238 28H79.5798V8.8H90.1638V12.128H83.5158V16.256H89.1798V19.552H83.5158V24.672H90.3238V28ZM103.021 28H98.7327L93.4207 8.8H97.6127L101.197 23.36L104.781 8.8H108.333L103.021 28ZM122.728 28H112.016V8.8H122.568V12.128H115.952V16.256H121.616V19.552H115.952V24.672H122.728V28ZM125.798 28V8.8H132.67C134.254 8.8 135.59 9.104 136.678 9.712C137.774 10.32 138.59 11.184 139.126 12.304C139.67 13.416 139.942 14.728 139.942 16.24C139.942 17.752 139.67 19.08 139.126 20.224C138.59 21.36 137.774 22.24 136.678 22.864C135.59 23.48 134.254 23.788 132.67 23.788H129.734V28H125.798ZM129.734 20.464H132.478C133.486 20.464 134.254 20.144 134.782 19.504C135.318 18.856 135.586 17.816 135.586 16.384V16.096C135.586 14.664 135.318 13.624 134.782 12.976C134.254 12.32 133.486 11.992 132.478 11.992H129.734V20.464Z" fill="white"/>
</svg>
